<svg width="417" height="436" viewBox="0 0 417 436" fill="none" xmlns="http://www.w3.org/2000/svg">
<path d="M208.5 272.5C237.288 272.5 260.625 248.1 260.625 218C260.625 187.9 237.288 163.5 208.5 163.5C179.712 163.5 156.375 187.9 156.375 218C156.375 248.1 179.712 272.5 208.5 272.5Z" stroke="white" stroke-width="18" stroke-linecap="round" stroke-linejoin="round"/>
<path d="M337.075 272.5C334.762 277.979 334.072 284.058 335.094 289.951C336.116 295.844 338.803 301.282 342.809 305.563L343.851 306.653C347.082 310.028 349.645 314.035 351.394 318.446C353.143 322.856 354.043 327.584 354.043 332.359C354.043 337.134 353.143 341.862 351.394 346.273C349.645 350.683 347.082 354.691 343.851 358.065C340.624 361.443 336.791 364.123 332.573 365.951C328.354 367.78 323.832 368.721 319.266 368.721C314.699 368.721 310.177 367.78 305.958 365.951C301.74 364.123 297.907 361.443 294.68 358.065L293.637 356.975C289.543 352.787 284.342 349.977 278.705 348.909C273.069 347.84 267.256 348.562 262.015 350.98C256.876 353.283 252.493 357.107 249.406 361.981C246.319 366.854 244.662 372.566 244.64 378.412V381.5C244.64 391.136 240.979 400.378 234.462 407.192C227.945 414.005 219.106 417.833 209.89 417.833C200.674 417.833 191.835 414.005 185.318 407.192C178.801 400.378 175.14 391.136 175.14 381.5V379.865C175.005 373.852 173.144 368.02 169.797 363.128C166.451 358.236 161.774 354.509 156.375 352.433C151.134 350.015 145.321 349.294 139.685 350.362C134.048 351.431 128.847 354.24 124.752 358.428L123.71 359.518C120.483 362.896 116.65 365.576 112.432 367.405C108.213 369.233 103.691 370.174 99.1244 370.174C94.5577 370.174 90.0358 369.233 85.8172 367.405C81.5986 365.576 77.7661 362.896 74.5387 359.518C71.3078 356.144 68.7447 352.137 66.9959 347.726C65.2472 343.315 64.347 338.587 64.347 333.812C64.347 329.038 65.2472 324.31 66.9959 319.899C68.7447 315.488 71.3078 311.481 74.5387 308.107L75.5812 307.017C79.5868 302.735 82.2738 297.297 83.2958 291.404C84.3178 285.511 83.6279 279.433 81.315 273.953C79.1125 268.58 75.4554 263.998 70.7938 260.77C66.1323 257.542 60.6698 255.81 55.0788 255.787H52.125C42.9087 255.787 34.0699 251.959 27.553 245.145C21.0362 238.331 17.375 229.09 17.375 219.453C17.375 209.817 21.0362 200.576 27.553 193.762C34.0699 186.948 42.9087 183.12 52.125 183.12H53.6887C59.4398 182.979 65.0173 181.033 69.6963 177.534C74.3753 174.035 77.9393 169.145 79.925 163.5C82.2379 158.021 82.9278 151.942 81.9058 146.049C80.8839 140.156 78.1968 134.718 74.1912 130.437L73.1488 129.347C69.9178 125.972 67.3547 121.965 65.6059 117.554C63.8572 113.144 62.957 108.416 62.957 103.641C62.957 98.8661 63.8572 94.1381 65.6059 89.7273C67.3547 85.3165 69.9178 81.3094 73.1488 77.935C76.3761 74.5569 80.2086 71.8769 84.4272 70.0485C88.6458 68.22 93.1677 67.2789 97.7344 67.2789C102.301 67.2789 106.823 68.22 111.042 70.0485C115.26 71.8769 119.093 74.5569 122.32 77.935L123.362 79.025C127.457 83.2131 132.658 86.0225 138.295 87.0911C143.931 88.1596 149.744 87.4383 154.985 85.02H156.375C161.514 82.7171 165.897 78.8934 168.984 74.0195C172.071 69.1455 173.728 63.4341 173.75 57.5883V54.5C173.75 44.8638 177.411 35.6223 183.928 28.8085C190.445 21.9946 199.284 18.1667 208.5 18.1667C217.716 18.1667 226.555 21.9946 233.072 28.8085C239.589 35.6223 243.25 44.8638 243.25 54.5V56.135C243.272 61.9808 244.929 67.6922 248.016 72.5661C251.103 77.4401 255.486 81.2638 260.625 83.5667C265.866 85.9849 271.679 86.7063 277.315 85.6377C282.952 84.5692 288.153 81.7598 292.247 77.5717L293.29 76.4817C296.517 73.1035 300.35 70.4236 304.568 68.5952C308.787 66.7667 313.309 65.8256 317.876 65.8256C322.442 65.8256 326.964 66.7667 331.183 68.5952C335.401 70.4236 339.234 73.1035 342.461 76.4817C345.692 79.8561 348.255 83.8632 350.004 88.274C351.753 92.6848 352.653 97.4127 352.653 102.187C352.653 106.962 351.753 111.69 350.004 116.101C348.255 120.512 345.692 124.519 342.461 127.893L341.419 128.983C337.413 133.265 334.726 138.703 333.704 144.596C332.682 150.489 333.372 156.567 335.685 162.047V163.5C337.887 168.873 341.545 173.456 346.206 176.683C350.868 179.911 356.33 181.643 361.921 181.667H364.875C374.091 181.667 382.93 185.495 389.447 192.308C395.964 199.122 399.625 208.364 399.625 218C399.625 227.636 395.964 236.878 389.447 243.692C382.93 250.505 374.091 254.333 364.875 254.333H363.311C357.72 254.357 352.258 256.089 347.596 259.317C342.935 262.544 339.277 267.127 337.075 272.5V272.5Z" stroke="white" stroke-width="18" stroke-miterlimit="10"/>
</svg>
