<svg width="69" height="71" viewBox="0 0 69 71" fill="none" xmlns="http://www.w3.org/2000/svg">
<g clip-path="url(#clip0)">
<path fill-rule="evenodd" clip-rule="evenodd" d="M62.1 0C65.918 0 69 2.97313 69 6.65625V64.3438C69 68.0269 65.918 71 62.1 71C58.282 71 55.2 68.0269 55.2 64.3438V6.65625C55.2 2.97313 58.282 0 62.1 0ZM6.9 44.375C10.718 44.375 13.8 47.3481 13.8 51.0312V64.3438C13.8 68.0269 10.718 71 6.9 71C3.082 71 0 68.0269 0 64.3438V51.0312C0 47.3481 3.082 44.375 6.9 44.375ZM34.5 22.1875C38.318 22.1875 41.4 25.1606 41.4 28.8438V64.3438C41.4 68.0269 38.318 71 34.5 71C30.682 71 27.6 68.0269 27.6 64.3438V28.8438C27.6 25.1606 30.682 22.1875 34.5 22.1875Z" fill="white"/>
</g>
<defs>
<clipPath id="clip0">
<rect width="69" height="71" fill="white"/>
</clipPath>
</defs>
</svg>
