<svg width="640" height="512" viewBox="0 0 640 512" fill="none" xmlns="http://www.w3.org/2000/svg">
<g clip-path="url(#clip0)">
<path d="M634.91 154.88C457.74 -8.99 182.19 -8.93 5.09 154.88C-1.57 161.04 -1.7 171.47 4.74 177.86L38.98 211.83C45.12 217.93 55 218.06 61.38 212.21C207.3 78.53 432.68 78.5 578.63 212.21C585.01 218.06 594.89 217.92 601.03 211.83L635.27 177.86C641.7 171.47 641.57 161.04 634.91 154.88ZM320 352C284.65 352 256 380.65 256 416C256 451.35 284.65 480 320 480C355.35 480 384 451.35 384 416C384 380.65 355.35 352 320 352ZM522.67 268.41C407.41 166.48 232.46 166.59 117.33 268.41C110.43 274.51 110.21 285.1 116.76 291.56L151.2 325.55C157.2 331.47 166.86 331.87 173.25 326.35C257.2 253.78 382.99 253.94 466.74 326.35C473.13 331.87 482.79 331.48 488.79 325.55L523.23 291.56C529.79 285.1 529.56 274.5 522.67 268.41V268.41Z" fill="white"/>
</g>
<defs>
<clipPath id="clip0">
<rect width="640" height="512" fill="white"/>
</clipPath>
</defs>
</svg>
